<?xml version="1.0" encoding="UTF-8" standalone="no"?>
<svg
   xmlns:dc="http://purl.org/dc/elements/1.1/"
   xmlns:cc="http://creativecommons.org/ns#"
   xmlns:rdf="http://www.w3.org/1999/02/22-rdf-syntax-ns#"
   xmlns:svg="http://www.w3.org/2000/svg"
   xmlns="http://www.w3.org/2000/svg"
   xmlns:sodipodi="http://sodipodi.sourceforge.net/DTD/sodipodi-0.dtd"
   xmlns:inkscape="http://www.inkscape.org/namespaces/inkscape"
   width="748"
   height="314"
   viewBox="0 0 748 314"
   fill="none"
   version="1.1"
   id="svg35"
   sodipodi:docname="signature1.svg"
   inkscape:version="1.0.2 (e86c870879, 2021-01-15)">
  <metadata
     id="metadata39">
    <rdf:RDF>
      <cc:Work
         rdf:about="">
        <dc:format>image/svg+xml</dc:format>
        <dc:type
           rdf:resource="http://purl.org/dc/dcmitype/StillImage" />
      </cc:Work>
    </rdf:RDF>
  </metadata>
  <sodipodi:namedview
     pagecolor="#ffffff"
     bordercolor="#666666"
     borderopacity="1"
     objecttolerance="10"
     gridtolerance="10"
     guidetolerance="10"
     inkscape:pageopacity="0"
     inkscape:pageshadow="2"
     inkscape:window-width="2560"
     inkscape:window-height="1379"
     id="namedview37"
     showgrid="false"
     inkscape:zoom="2.131016"
     inkscape:cx="374"
     inkscape:cy="157"
     inkscape:window-x="0"
     inkscape:window-y="0"
     inkscape:window-maximized="1"
     inkscape:current-layer="svg35" />
  <rect
     x="1.5"
     y="1.5"
     width="745"
     height="311"
     rx="10.5"
     stroke="black"
     stroke-width="3"
     id="rect2"
     style="stroke:#0f2d56;stroke-opacity:1" />
  <path
     fill-rule="evenodd"
     clip-rule="evenodd"
     d="m 119.081,63.6699 c 0.339,-0.0402 0.683,-0.0021 1.005,0.1114 0.322,0.1135 0.613,0.2993 0.851,0.5429 0.238,0.2437 0.416,0.5386 0.521,0.8618 0.104,0.3233 0.132,0.6661 0.082,1.0019 0.043,0.3324 0.009,0.6702 -0.099,0.9877 -0.108,0.3176 -0.287,0.6065 -0.524,0.8449 -0.237,0.2384 -0.526,0.42 -0.844,0.5311 -0.318,0.1111 -0.657,0.1487 -0.992,0.11 h -7.228 V 55.9972 h 12.399 c 1.594,0 1.356,-1.7923 1.356,-2.7403 0,-0.3653 -0.146,-0.7157 -0.406,-0.974 -0.26,-0.2584 -0.612,-0.4035 -0.98,-0.4035 h -16.527 c -0.182,-0.002 -0.362,0.0323 -0.53,0.101 -0.169,0.0687 -0.321,0.1704 -0.449,0.2989 -0.128,0.1285 -0.229,0.2813 -0.296,0.4492 -0.067,0.168 -0.1,0.3477 -0.096,0.5284 V 71.461 c -0.006,0.1749 0.024,0.3492 0.087,0.5125 0.063,0.1633 0.159,0.3123 0.281,0.4381 0.122,0.1258 0.269,0.2258 0.431,0.2941 0.162,0.0682 0.336,0.1034 0.513,0.1033 h 11.445 c 4.47,0 7.987,-2.0293 7.987,-6.6211 0,-4.5917 -3.517,-6.6358 -7.987,-6.6358 -4.859,0 -5.127,-0.5036 -5.127,2.755 0,1.7627 2.251,1.3628 3.785,1.3628 z m -26.2884,0 c -3.5468,0 -3.7107,-0.237 -3.7107,2.755 0,1.7479 2.131,1.3627 3.7107,1.3627 h 3.8001 c 0,5.5102 -0.5663,5.051 4.1433,5.051 0.18,0.0019 0.358,-0.0314 0.525,-0.0981 0.168,-0.0666 0.32,-0.1654 0.449,-0.2906 0.128,-0.1251 0.231,-0.2743 0.302,-0.4389 0.07,-0.1645 0.108,-0.3414 0.11,-0.5203 V 53.2273 c 0.008,-0.3447 -0.12,-0.6788 -0.357,-0.9308 -0.237,-0.252 -0.564,-0.4017 -0.91,-0.4171 h -7.8985 c -4.2621,0 -8.5093,1.0517 -9.7314,5.673 L 79.5293,71.461 c -0.4918,1.7775 2.0119,1.348 3.9045,1.348 0.3998,-0.0169 0.784,-0.1594 1.0972,-0.4069 0.3133,-0.2475 0.5396,-0.5873 0.6464,-0.9707 l 3.368,-12.4866 c 0.9686,-3.6142 4.575,-2.9624 8.0473,-2.9624 v 7.643 z M 77.0704,71.4314 V 53.2569 c 0.0095,-0.3383 -0.1093,-0.6678 -0.333,-0.923 -0.2236,-0.2552 -0.5357,-0.4174 -0.8741,-0.4545 h -7.3619 c -4.2621,0 -8.4944,1.0517 -9.7314,5.673 L 54.9997,71.624 c -0.4471,1.6589 2.2056,1.2294 3.9343,1.2294 0.3998,-0.0169 0.784,-0.1593 1.0972,-0.4069 0.3133,-0.2475 0.5396,-0.5873 0.6464,-0.9706 L 64.0903,58.93 c 0.9537,-3.5549 4.5601,-2.9624 7.4512,-2.9624 v 15.4638 c 0,1.8071 2.3248,1.3776 4.1728,1.3776 0.18,-0.002 0.3579,-0.0392 0.5235,-0.1094 0.1656,-0.0703 0.3157,-0.1723 0.4416,-0.3002 0.1259,-0.1279 0.2253,-0.2793 0.2923,-0.4453 0.0671,-0.1661 0.1007,-0.3437 0.0987,-0.5227 z m 101.8886,1.4812 c 5.32,0 8.51,-1.733 8.51,-6.621 0,-7.5246 -7.362,-6.6358 -13.413,-6.6358 v -3.6586 h 10.969 c 1.624,0 1.371,-1.733 1.371,-2.7403 0.004,-0.1807 -0.029,-0.3604 -0.096,-0.5284 -0.068,-0.1679 -0.168,-0.3207 -0.296,-0.4492 -0.128,-0.1285 -0.281,-0.2302 -0.449,-0.2989 -0.168,-0.0687 -0.349,-0.103 -0.53,-0.101 h -15.097 c -0.182,-0.002 -0.363,0.0323 -0.532,0.1008 -0.17,0.0685 -0.323,0.1699 -0.452,0.2982 -0.129,0.1284 -0.231,0.281 -0.3,0.449 -0.069,0.1681 -0.104,0.3481 -0.102,0.5295 v 9.1984 c 0.008,0.3588 0.158,0.7001 0.418,0.9497 0.259,0.2496 0.607,0.3873 0.968,0.3834 h 8.525 c 2.309,0 3.487,0.6369 3.487,2.518 0,1.8812 -1.178,2.5033 -3.487,2.5033 h -8.525 c -1.624,0 -1.386,1.7774 -1.386,2.7402 0,1.6886 1.938,1.3775 3.175,1.3775 z m 20.476,-21.1221 c -5.827,0 -10.536,2.5477 -10.536,10.5759 0,8.0282 4.709,10.561 10.536,10.561 h 1.029 c 5.826,0 10.536,-2.5328 10.536,-10.561 0,-8.0282 -4.71,-10.5759 -10.536,-10.5759 z m 0.522,4.1178 c 3.085,0 5.529,1.4812 5.529,6.4581 0,4.9769 -2.444,6.4433 -5.529,6.4433 -3.085,0 -5.529,-1.4812 -5.529,-6.4433 0,-4.9621 2.429,-6.4581 5.529,-6.4581 z"
     fill="#090400"
     id="path4"
     style="fill:#0f2d56;fill-opacity:1" />
  <path
     fill-rule="evenodd"
     clip-rule="evenodd"
     d="m 139.288,77.5491 c -0.288,0 -0.565,0.114 -0.769,0.3167 -0.204,0.2028 -0.319,0.4778 -0.319,0.7646 v 3.3624 c 0,0.2868 -0.114,0.5618 -0.318,0.7646 -0.204,0.2027 -0.481,0.3167 -0.77,0.3167 h -4.142 c -0.289,0 -0.566,-0.114 -0.77,-0.3167 -0.204,-0.2028 -0.318,-0.4778 -0.318,-0.7646 v -4.1919 c 0,-0.142 0.028,-0.2826 0.082,-0.4138 0.055,-0.1311 0.135,-0.2503 0.236,-0.3507 0.101,-0.1004 0.221,-0.1801 0.353,-0.2344 0.132,-0.0544 0.274,-0.0823 0.417,-0.0823 h 3.248 c 0.144,0.0019 0.286,-0.0247 0.419,-0.0783 0.133,-0.0536 0.254,-0.1332 0.355,-0.234 0.101,-0.1008 0.181,-0.2208 0.235,-0.3529 0.054,-0.1321 0.081,-0.2736 0.079,-0.4161 v -4.6659 c 0.004,-0.3038 0.128,-0.5939 0.346,-0.8074 0.217,-0.2134 0.511,-0.3331 0.817,-0.3331 h 5.424 c 0.306,0 0.599,0.1197 0.817,0.3331 0.217,0.2135 0.342,0.5036 0.345,0.8074 v 5.4065 c -0.003,0.3038 -0.128,0.5939 -0.345,0.8074 -0.218,0.2134 -0.511,0.3331 -0.817,0.3331 h -4.605 z m 9.94,-21.2406 c -0.464,-0.0039 -0.907,-0.1897 -1.234,-0.5171 -0.326,-0.3274 -0.509,-0.7697 -0.509,-1.2307 v -5.3472 c -0.004,-0.461 -0.191,-0.9017 -0.521,-1.2263 -0.329,-0.3246 -0.774,-0.5067 -1.238,-0.5067 h -6.661 c -0.464,0 -0.909,0.1821 -1.239,0.5067 -0.329,0.3246 -0.516,0.7653 -0.52,1.2263 v 6.6359 c 0,0.2288 0.046,0.4554 0.134,0.6666 0.089,0.2112 0.219,0.4029 0.382,0.564 0.164,0.1612 0.358,0.2885 0.571,0.3747 0.213,0.0862 0.441,0.1296 0.672,0.1277 h 5.23 c 0.467,0 0.914,0.1841 1.244,0.5119 0.33,0.3278 0.515,0.7723 0.515,1.2359 v 7.5246 c 0.012,0.4807 0.211,0.9381 0.556,1.2754 0.345,0.3373 0.808,0.5279 1.292,0.5316 h 8.748 c 0.491,1e-4 0.963,-0.193 1.312,-0.537 0.349,-0.344 0.547,-0.8112 0.55,-1.2997 v -8.6799 c -0.003,-0.4885 -0.201,-0.9556 -0.55,-1.2996 -0.349,-0.3441 -0.821,-0.5371 -1.312,-0.5371 h -7.452 z M 133.133,42 h 2.802 c 0.344,0 0.674,0.1358 0.917,0.3774 0.243,0.2417 0.38,0.5695 0.38,0.9113 v 2.7846 c 0,0.3418 -0.137,0.6696 -0.38,0.9113 -0.243,0.2416 -0.573,0.3774 -0.917,0.3774 h -2.802 c -0.343,0 -0.673,-0.1358 -0.916,-0.3774 -0.243,-0.2417 -0.38,-0.5695 -0.38,-0.9113 v -2.7846 c 0,-0.3418 0.137,-0.6696 0.38,-0.9113 C 132.46,42.1358 132.79,42 133.133,42 Z"
     fill="#090400"
     id="path6"
     style="fill:#5ec238;fill-opacity:1" />
  <text
     fill="black"
     xml:space="preserve"
     style="white-space:pre;fill:#0f2d56;fill-opacity:1;"
     font-family="Commissioner"
     font-size="22"
     font-weight="500"
     letter-spacing="0em"
     id="text16"><tspan
       x="270.394"
       y="68.421"
       id="tspan10"
       style="fill:#0f2d56;fill-opacity:1;">ДОКУМЕНТ  ПОДПИСАН  УСИЛЕННОЙ </tspan><tspan
       x="342.463"
       y="99.421"
       id="tspan12"
       style="fill:#0f2d56;fill-opacity:1;">КВАЛИФИЦИРОВАННОЙ </tspan><tspan
       x="320.968"
       y="130.421"
       id="tspan14"
       style="fill:#0f2d56;fill-opacity:1;">ЭЛЕКТРОННОЙ  ПОДПИСЬЮ</tspan></text>
  <text
     fill="black"
     xml:space="preserve"
     style="white-space:pre;fill:#0f2d56;fill-opacity:1;"
     font-family="Commissioner"
     font-size="23"
     letter-spacing="0em"
     id="text20"><tspan
       x="55"
       y="188.326"
       id="tspan18"
       style="fill:#0f2d56;fill-opacity:1;">Сертификат: {sha1}</tspan></text>
  <text
     fill="black"
     xml:space="preserve"
     style="white-space:pre;fill:#0f2d56;fill-opacity:1;"
     font-family="Commissioner"
     font-size="23"
     letter-spacing="0em"
     id="text24"><tspan
       x="55"
       y="226.326"
       id="tspan22"
       style="fill:#0f2d56;fill-opacity:1;">Владелец: {subject/cn}</tspan></text>
  <text
     fill="black"
     xml:space="preserve"
     style="white-space:pre;fill:#0f2d56;fill-opacity:1;"
     font-family="Commissioner"
     font-size="23"
     letter-spacing="0em"
     id="text28"><tspan
       x="55"
       y="263.326"
       id="tspan26"
       style="fill:#0f2d56;fill-opacity:1;">Действителен по {until}</tspan></text>
  <defs
     id="defs33">
    <clipPath
       id="clip0_207_2">
      <rect
         width="156"
         height="41"
         fill="white"
         transform="translate(55 42)"
         id="rect30" />
    </clipPath>
  </defs>
</svg>
